<?xml version="1.0" encoding="UTF-8"?><svg id="uuid-155fbfd9-a955-4877-bdf7-c25da01c0657" xmlns="http://www.w3.org/2000/svg" viewBox="0 0 64.63 39.63"><g id="uuid-c1606278-e6c7-4ad8-83bd-917ec13485ea"><path d="M4.43,15.87c-1.66-.14-3.07-.32-4.13-.48.64-1.29,1.81-3.26,3.85-4.94,1.97-1.63,3.82-2.22,6.79-3.13,2.57-.79,4.88-1.5,7.98-1.51,1.95,0,7.7,0,8.49,2.65.45,1.51-.76,3.66-2.09,4.76-.69.57-1.35.81-1.64.9-5.13,1.76-12.06,1.93-12.06,1.93-3.49.09-5.91-.07-7.19-.18Z" style="fill:#ef45df; stroke:#231f20; stroke-miterlimit:10; stroke-width:.4px;"/><path d="M50.03,39.43c-.17,0-.34-.07-.48-.21l-4.55-4.68c-.16-.16-.25-.4-.26-.65,0-.26.08-.5.24-.67,1.97-2.21,3.96-4.43,5.94-6.64l2.16-5.06c.19-.44.65-.58.99-.39.36.22.51.75.32,1.19l-2.22,5.19c-.04.1-.09.18-.16.25-1.81,2.02-3.62,4.05-5.43,6.07l3.93,4.04c.31.32.35.88.08,1.25-.14.21-.35.31-.56.31Z" style="fill:#ef45df; stroke:#231f20; stroke-miterlimit:10; stroke-width:.4px;"/><path d="M38.13,37.83s-.06,0-.09,0c-.4-.06-.69-.5-.64-.98l.55-5.58c.03-.3.18-.56.41-.69l5.91-3.47,2.31-4.49c.21-.42.67-.55,1.01-.29.35.26.45.8.24,1.22l-2.43,4.71c-.07.15-.18.26-.31.33l-5.74,3.37-.51,5.1c-.05.45-.36.78-.73.78Z" style="fill:#ef45df; stroke:#231f20; stroke-miterlimit:10; stroke-width:.4px;"/><path d="M28.84,36.08c-.1,0-.21-.03-.32-.08-.37-.21-.52-.74-.35-1.18.54-1.36,1.07-2.71,1.59-4.07.09-.22.25-.39.44-.47l8.87-3.44,3.93-4.41c.29-.33.75-.31,1.04.05.28.35.26.91-.04,1.25l-4.05,4.54c-.07.09-.17.16-.28.2l-8.72,3.38c-.48,1.25-.97,2.49-1.46,3.74-.13.32-.39.5-.67.5Z" style="fill:#ef45df; stroke:#231f20; stroke-miterlimit:10; stroke-width:.4px;"/><path d="M54.13,18.11c-.33,0-.62-.29-.71-.71l-1.07-5.17-6.07-3.7c-.23-.14-.39-.43-.42-.76-.03-.34.07-.66.28-.87l5.55-5.69c.31-.33.78-.26,1.04.16.25.42.2,1.02-.13,1.35l-4.61,4.73,5.3,3.23c.2.12.35.35.4.62l1.16,5.6c.1.51-.13,1.04-.52,1.18-.06.02-.13.03-.19.03Z" style="fill:#ef45df; stroke:#231f20; stroke-miterlimit:10; stroke-width:.4px;"/><path d="M47.6,16.86c-.32,0-.62-.28-.71-.7l-.87-4-6.48-5.14c-.18-.14-.31-.4-.35-.68-.03-.29.03-.57.18-.78l2.85-4.16c.26-.4.73-.44,1.04-.08.31.35.33.96.06,1.36l-2.25,3.29,5.97,4.73c.16.12.27.32.32.56l.95,4.36c.11.51-.12,1.04-.51,1.19-.07.02-.13.04-.2.04Z" style="fill:#ef45df; stroke:#231f20; stroke-miterlimit:10; stroke-width:.4px;"/><path d="M51.54,16.18c3.13.35,5.11.4,7.77,1.66,2.33,1.11,3.97,2.59,4.99,3.68-1.41.72-3.5,1.64-6.16,2.25-2.33.53-4.01.57-6.13.64-11.44.39-12.38.91-13.65-.25-2.43-2.23-2.61-7.48-.42-9.43,1.78-1.59,3.61.35,13.6,1.46Z" style="fill:#ef45df; stroke:#231f20; stroke-miterlimit:10; stroke-width:.4px;"/><path d="M56.46,11.74c.64,2.11,1.31,5.13,1.32,8.81.01,3.78-.67,6.88-1.32,9.02,1.06-.3,2.52-.89,3.81-2.15.79-.77,2.12-2.06,1.94-3.54-.13-1.08-.94-1.2-1.04-2.22-.14-1.53,1.6-2.23,1.87-3.44.25-1.15-.74-3.08-6.58-6.47Z" style="fill:#ef45df; stroke:#231f20; stroke-miterlimit:10; stroke-width:.4px;"/><path d="M43.91,16.86c-.23,0-.46-.14-.6-.41l-3.17-5.88-6.49-4.32c-.31-.2-.47-.66-.38-1.1l.83-4.24c.1-.51.47-.82.9-.69.39.13.63.65.53,1.17l-.69,3.5,6.13,4.08c.11.07.2.17.27.3l3.28,6.08c.23.44.15,1.04-.18,1.34-.13.11-.28.17-.43.17Z" style="fill:#ef45df; stroke:#231f20; stroke-miterlimit:10; stroke-width:.4px;"/><path d="M30.04,22.86c2.38.23,8.11-1.08,8.46.13.23.8-2.05,2.09-3.11,2.69-2.31,1.31-4.54,1.62-5.9,1.68-.38.02-.69.02-.9.01-.29.14-1.09.49-1.86.19-1.43-.56-2.05-3.02-1.03-3.96.6-.55,1.72-.53,2.76-.04.02-.09.07-.23.18-.37.39-.46,1.19-.36,1.41-.34Z" style="fill:#ef45df; stroke:#231f20; stroke-miterlimit:10; stroke-width:.4px;"/><path d="M28.81,9.47c.37.05.9.14,1.52.29.62.15,2.13.52,3.49,1.27,1.36.75,3.51,2.39,3.19,3.23-.08.21-.38.56-4.09.57-1.99,0-3.62-.09-4.74-.18-.23-.57-.77-.93-1.34-.91-.7.03-1.08.62-1.11.67-.17-.32-.4-.84-.51-1.5-.06-.39-.25-1.83.61-3.25.2-.32.55-.82,1.16-1.29.61.37,1.21.73,1.82,1.1Z" style="fill:#ef45df; stroke:#231f20; stroke-miterlimit:10; stroke-width:.4px;"/><path d="M16.64,21.84c-1.11-.3-2.02-.59-2.66-.81-1.72-.59-2.58-.89-3.25-1.17-1.43-.59-2.09-.98-2.6-.65-.24.16-.42.46-.41.74.02.45.52.76,1.03,1.04,1.48.82,2.22,1.23,3.47,1.46,1.1.2,1.75.11,2.61.67.32.21.56.43.7.59.37-.62.74-1.25,1.12-1.87Z" style="fill:#ef45df; stroke:#231f20; stroke-miterlimit:10; stroke-width:.4px;"/><path d="M16.41,24.04c-.25-.65-1.1-.98-1.57-.75-.19.09-.17.21-.35.4-.3.3-.69.34-2.39.32-.89-.01-1.25-.03-1.51-.04-1.34-.07-1.59-.17-1.76-.27-.52-.31-.81-.8-.94-1.02-.27-.45-.38-.88-.43-1.16-.1.15-.24.38-.31.69-.24,1,.41,1.84.51,1.96.55.68,1.31.85,2.06,1.02.79.18.81.02,2.6.1.23.01,1.27.06,2.62.04.69-.01,1.17-.03,1.41-.37.26-.36.08-.84.06-.9Z" style="fill:#ef45df; stroke:#231f20; stroke-miterlimit:10; stroke-width:.4px;"/><path d="M39.66,13.21c-.61.03-2.11.22-5.11.59-1.9.23-3.21.42-4.9.72-2.9.53-2.65.68-4.93,1.07-3.38.58-6.74.74-6.74.74h0s.36.46.31.78c-.07.46-.94.53-.94.83,0,.31.94.43.94.73,0,.3-.94.43-.94.73,0,.28.85.32.94.73.08.38-.56.64-.52.88.09.55,3.31-.03,6.71.52,1.44.23,1.21.39,5.95,1.8,1.71.51,3.44,1,4.21,1.19,4.48,1.13,10.37,2.62,13.16-.21,2.42-2.46,2.26-7.92-.25-10.08-1.59-1.36-3.92-1.24-7.89-1.04Z" style="fill:#ef45df; stroke:#231f20; stroke-miterlimit:10; stroke-width:.4px;"/><path d="M25.94,25.02c0-.72-.19-1.33-.38-1.75-.04-.02-.1-.05-.18-.09-1.55-.78-2.75-.89-5.32-1.19-4.16-.49-4.73.12-4.91.37-.5.68-.38,1.82.07,2.56.24.39.61.72,1.56,1.14,1.34.6,2.41.76,3.79.98.35.05,3.23.87,4.15.52.12-.04.22-.11.22-.11.46-.27.64-.74.77-1.07.07-.18.24-.67.23-1.37Z" style="fill:#ef45df; stroke:#231f20; stroke-miterlimit:10; stroke-width:.4px;"/><circle cx="21.74" cy="15.92" r="2.65" style="fill:#fff; stroke:#231f20; stroke-miterlimit:10; stroke-width:.4px;"/><circle cx="22.72" cy="19.49" r="2.65" style="fill:#fff; stroke:#231f20; stroke-miterlimit:10; stroke-width:.4px;"/><circle cx="20.76" cy="14.63" r="1.03" style="fill:#231f20;"/><circle cx="24.1" cy="20.26" r="1.03" style="fill:#231f20;"/></g></svg>